<svg width="512" height="512" version="1.1" xmlns="http://www.w3.org/2000/svg" desc="Created with imagetracer.js version 1.2.6" ><path fill="rgb(0,0,0)" stroke="rgb(0,0,0)" stroke-width="1" opacity="0.9725490196078431" d="M 177.5 106 L 185.5 106 L 194.5 110 L 339.5 234 L 350 244.5 L 353 253.5 L 353 257.5 Q 351.3 267.8 344.5 273 L 193.5 402 L 184.5 406 L 176.5 406 Q 168.8 403.8 164 398.5 Q 158.7 393.3 159 382.5 L 162 373.5 L 171.5 364 L 296.5 257 L 298 257 L 292.5 250 L 173.5 149 L 163 138.5 L 160 129.5 L 160 124.5 Q 161.9 115.9 167.5 111 L 177.5 106 Z " /><path fill="rgb(0,0,0)" stroke="rgb(0,0,0)" stroke-width="1" opacity="0" d="M 0 0 L 512 0 L 512 512 L 0 512 L 0 0 Z M 178 106 L 168 111 Q 162 116 160 125 L 160 130 L 163 139 L 174 149 L 293 250 L 298 257 L 297 257 L 172 364 L 162 374 L 159 383 Q 159 393 164 399 Q 169 404 177 406 L 185 406 L 194 402 L 345 273 Q 351 268 353 258 L 353 254 L 350 245 L 340 234 L 195 110 L 186 106 L 178 106 Z " /></svg>