<svg width="512" height="512" version="1.1" xmlns="http://www.w3.org/2000/svg" desc="Created with imagetracer.js version 1.2.6" ><path fill="rgb(0,0,0)" stroke="rgb(0,0,0)" stroke-width="1" opacity="0.9764705882352941" d="M 314.5 108 Q 331.7 106.8 337 117.5 Q 341.3 122.7 340 133.5 L 335 143.5 L 223 256.5 L 336 369.5 L 341 379.5 L 341 388.5 L 335 400 L 325.5 405 L 314.5 405 L 306.5 401 L 175 269.5 Q 169.2 263.8 171 250.5 L 176 241.5 L 304.5 113 L 314.5 108 Z " /><path fill="rgb(0,0,0)" stroke="rgb(0,0,0)" stroke-width="1" opacity="0" d="M 0 0 L 512 0 L 512 512 L 0 512 L 0 0 Z M 315 108 L 305 113 L 176 242 L 171 251 Q 169 264 175 270 L 307 401 L 315 405 L 326 405 L 335 400 L 341 389 L 341 380 L 336 370 L 223 257 L 335 144 L 340 134 Q 341 123 337 118 Q 332 107 315 108 Z " /></svg>