<svg width="512" height="512" version="1.1" xmlns="http://www.w3.org/2000/svg" desc="Created with imagetracer.js version 1.2.6" ><path fill="#B8B8B8" stroke="#B8B8B8" stroke-width="1" opacity="0.9725490196078431" d="M 122.5 171 Q 135.8 169.2 141.5 175 L 256.5 289 L 368.5 177 L 378.5 172 L 387.5 172 Q 396.5 174.4 401 181.5 Q 405.4 186.7 404 197.5 L 399 207.5 L 270.5 336 Q 265 343 250.5 341 L 242.5 337 L 111 205.5 Q 105.2 199.8 107 186.5 Q 109.1 179.1 114.5 175 L 122.5 171 Z " /><path fill="#B8B8B8" stroke="#B8B8B8" stroke-width="1" opacity="0" d="M 0 0 L 512 0 L 512 512 L 0 512 L 0 0 Z M 123 171 L 115 175 Q 109 179 107 187 Q 105 200 111 206 L 243 337 L 251 341 Q 265 343 271 336 L 399 208 L 404 198 Q 405 187 401 182 Q 397 174 388 172 L 379 172 L 369 177 L 257 289 L 142 175 Q 136 169 123 171 Z " /></svg>